<?xml version="1.0" encoding="UTF-8" standalone="no"?>
<!DOCTYPE svg PUBLIC "-//W3C//DTD SVG 1.1//EN"
 "http://www.w3.org/Graphics/SVG/1.1/DTD/svg11.dtd">
<!-- Generated by graphviz version 13.0.0 (20250608.1624)
 -->
<!-- Pages: 1 -->
<svg width="769pt" height="58pt"
 viewBox="0.00 0.00 769.00 58.00" xmlns="http://www.w3.org/2000/svg" xmlns:xlink="http://www.w3.org/1999/xlink">
<g id="graph0" class="graph" transform="scale(1 1) rotate(0) translate(4 54)">
<polygon fill="white" stroke="none" points="-4,4 -4,-54 765.25,-54 765.25,4 -4,4"/>
<!-- bits -->
<g id="node1" class="node">
<title>bits</title>
<polygon fill="none" stroke="black" points="0,-0.5 0,-49.5 761.25,-49.5 761.25,-0.5 0,-0.5"/>
<text xml:space="preserve" text-anchor="middle" x="30.88" y="-32.2" font-family="Times,serif" font-size="14.00">31 ... 26</text>
<polyline fill="none" stroke="black" points="0,-25 61.75,-25"/>
<text xml:space="preserve" text-anchor="middle" x="30.88" y="-7.7" font-family="Times,serif" font-size="14.00">reserved</text>
<polyline fill="none" stroke="black" points="61.75,-0.5 61.75,-49.5"/>
<text xml:space="preserve" text-anchor="middle" x="76.5" y="-32.2" font-family="Times,serif" font-size="14.00">25</text>
<polyline fill="none" stroke="black" points="91.25,-25 91.25,-49.5"/>
<text xml:space="preserve" text-anchor="middle" x="106" y="-32.2" font-family="Times,serif" font-size="14.00">24</text>
<polyline fill="none" stroke="black" points="120.75,-25 120.75,-49.5"/>
<text xml:space="preserve" text-anchor="middle" x="135.5" y="-32.2" font-family="Times,serif" font-size="14.00">23</text>
<polyline fill="none" stroke="black" points="150.25,-25 150.25,-49.5"/>
<text xml:space="preserve" text-anchor="middle" x="165" y="-32.2" font-family="Times,serif" font-size="14.00">22</text>
<polyline fill="none" stroke="black" points="179.75,-25 179.75,-49.5"/>
<text xml:space="preserve" text-anchor="middle" x="194.5" y="-32.2" font-family="Times,serif" font-size="14.00">21</text>
<polyline fill="none" stroke="black" points="209.25,-25 209.25,-49.5"/>
<text xml:space="preserve" text-anchor="middle" x="224" y="-32.2" font-family="Times,serif" font-size="14.00">20</text>
<polyline fill="none" stroke="black" points="238.75,-25 238.75,-49.5"/>
<text xml:space="preserve" text-anchor="middle" x="253.5" y="-32.2" font-family="Times,serif" font-size="14.00">19</text>
<polyline fill="none" stroke="black" points="268.25,-25 268.25,-49.5"/>
<text xml:space="preserve" text-anchor="middle" x="283" y="-32.2" font-family="Times,serif" font-size="14.00">18</text>
<polyline fill="none" stroke="black" points="297.75,-25 297.75,-49.5"/>
<text xml:space="preserve" text-anchor="middle" x="312.5" y="-32.2" font-family="Times,serif" font-size="14.00">17</text>
<polyline fill="none" stroke="black" points="327.25,-25 327.25,-49.5"/>
<text xml:space="preserve" text-anchor="middle" x="342" y="-32.2" font-family="Times,serif" font-size="14.00">16</text>
<polyline fill="none" stroke="black" points="61.75,-25 356.75,-25"/>
<text xml:space="preserve" text-anchor="middle" x="209.25" y="-7.7" font-family="Times,serif" font-size="14.00">m</text>
<polyline fill="none" stroke="black" points="356.75,-0.5 356.75,-49.5"/>
<text xml:space="preserve" text-anchor="middle" x="371.5" y="-32.2" font-family="Times,serif" font-size="14.00">15</text>
<polyline fill="none" stroke="black" points="386.25,-25 386.25,-49.5"/>
<text xml:space="preserve" text-anchor="middle" x="401" y="-32.2" font-family="Times,serif" font-size="14.00">14</text>
<polyline fill="none" stroke="black" points="415.75,-25 415.75,-49.5"/>
<text xml:space="preserve" text-anchor="middle" x="430.5" y="-32.2" font-family="Times,serif" font-size="14.00">13</text>
<polyline fill="none" stroke="black" points="445.25,-25 445.25,-49.5"/>
<text xml:space="preserve" text-anchor="middle" x="460" y="-32.2" font-family="Times,serif" font-size="14.00">12</text>
<polyline fill="none" stroke="black" points="356.75,-25 474.75,-25"/>
<text xml:space="preserve" text-anchor="middle" x="415.75" y="-7.7" font-family="Times,serif" font-size="14.00">e</text>
<polyline fill="none" stroke="black" points="474.75,-0.5 474.75,-49.5"/>
<text xml:space="preserve" text-anchor="middle" x="489.5" y="-32.2" font-family="Times,serif" font-size="14.00">11</text>
<polyline fill="none" stroke="black" points="504.25,-25 504.25,-49.5"/>
<text xml:space="preserve" text-anchor="middle" x="519" y="-32.2" font-family="Times,serif" font-size="14.00">10</text>
<polyline fill="none" stroke="black" points="533.75,-25 533.75,-49.5"/>
<text xml:space="preserve" text-anchor="middle" x="545.12" y="-32.2" font-family="Times,serif" font-size="14.00">9</text>
<polyline fill="none" stroke="black" points="474.75,-25 556.5,-25"/>
<text xml:space="preserve" text-anchor="middle" x="515.62" y="-7.7" font-family="Times,serif" font-size="14.00">p</text>
<polyline fill="none" stroke="black" points="556.5,-0.5 556.5,-49.5"/>
<text xml:space="preserve" text-anchor="middle" x="567.88" y="-32.2" font-family="Times,serif" font-size="14.00">8</text>
<polyline fill="none" stroke="black" points="579.25,-25 579.25,-49.5"/>
<text xml:space="preserve" text-anchor="middle" x="590.62" y="-32.2" font-family="Times,serif" font-size="14.00">7</text>
<polyline fill="none" stroke="black" points="602,-25 602,-49.5"/>
<text xml:space="preserve" text-anchor="middle" x="613.38" y="-32.2" font-family="Times,serif" font-size="14.00">6</text>
<polyline fill="none" stroke="black" points="556.5,-25 624.75,-25"/>
<text xml:space="preserve" text-anchor="middle" x="590.62" y="-7.7" font-family="Times,serif" font-size="14.00">q</text>
<polyline fill="none" stroke="black" points="624.75,-0.5 624.75,-49.5"/>
<text xml:space="preserve" text-anchor="middle" x="636.12" y="-32.2" font-family="Times,serif" font-size="14.00">5</text>
<polyline fill="none" stroke="black" points="647.5,-25 647.5,-49.5"/>
<text xml:space="preserve" text-anchor="middle" x="658.88" y="-32.2" font-family="Times,serif" font-size="14.00">4</text>
<polyline fill="none" stroke="black" points="670.25,-25 670.25,-49.5"/>
<text xml:space="preserve" text-anchor="middle" x="681.62" y="-32.2" font-family="Times,serif" font-size="14.00">3</text>
<polyline fill="none" stroke="black" points="624.75,-25 693,-25"/>
<text xml:space="preserve" text-anchor="middle" x="658.88" y="-7.7" font-family="Times,serif" font-size="14.00">r</text>
<polyline fill="none" stroke="black" points="693,-0.5 693,-49.5"/>
<text xml:space="preserve" text-anchor="middle" x="704.38" y="-32.2" font-family="Times,serif" font-size="14.00">2</text>
<polyline fill="none" stroke="black" points="715.75,-25 715.75,-49.5"/>
<text xml:space="preserve" text-anchor="middle" x="727.12" y="-32.2" font-family="Times,serif" font-size="14.00">1</text>
<polyline fill="none" stroke="black" points="738.5,-25 738.5,-49.5"/>
<text xml:space="preserve" text-anchor="middle" x="749.88" y="-32.2" font-family="Times,serif" font-size="14.00">0</text>
<polyline fill="none" stroke="black" points="693,-25 761.25,-25"/>
<text xml:space="preserve" text-anchor="middle" x="727.12" y="-7.7" font-family="Times,serif" font-size="14.00">t</text>
</g>
</g>
</svg>
