<?xml version="1.0" encoding="UTF-8" standalone="no"?>
<!DOCTYPE svg PUBLIC "-//W3C//DTD SVG 1.1//EN"
 "http://www.w3.org/Graphics/SVG/1.1/DTD/svg11.dtd">
<!-- Generated by graphviz version 13.0.0 (20250608.1624)
 -->
<!-- Title: G Pages: 1 -->
<svg width="785pt" height="503pt"
 viewBox="0.00 0.00 785.00 503.00" xmlns="http://www.w3.org/2000/svg" xmlns:xlink="http://www.w3.org/1999/xlink">
<g id="graph0" class="graph" transform="scale(1 1) rotate(0) translate(4 499)">
<title>G</title>
<polygon fill="white" stroke="none" points="-4,4 -4,-499 780.88,-499 780.88,4 -4,4"/>
<g id="clust1" class="cluster">
<title>cluster_outer1</title>
<polygon fill="lightyellow" stroke="black" points="105.88,-370 105.88,-487 309.88,-487 309.88,-370 105.88,-370"/>
<text xml:space="preserve" text-anchor="middle" x="207.88" y="-469.7" font-family="Times,serif" font-size="14.00">build_model.py</text>
</g>
<g id="clust2" class="cluster">
<title>cluster_inner1</title>
<polygon fill="white" stroke="black" points="113.88,-378 113.88,-454.5 211.88,-454.5 211.88,-378 113.88,-378"/>
<text xml:space="preserve" text-anchor="middle" x="162.88" y="-437.2" font-family="Times,serif" font-size="14.00">build_model()</text>
</g>
<g id="clust3" class="cluster">
<title>cluster_outer2</title>
<polygon fill="lightyellow" stroke="black" points="415.88,-220.5 415.88,-337.5 768.88,-337.5 768.88,-220.5 415.88,-220.5"/>
<text xml:space="preserve" text-anchor="middle" x="592.38" y="-320.2" font-family="Times,serif" font-size="14.00">datagen.py</text>
</g>
<g id="clust4" class="cluster">
<title>cluster_inner2</title>
<polygon fill="#e6e6fa" stroke="black" points="423.88,-228.5 423.88,-305 760.88,-305 760.88,-228.5 423.88,-228.5"/>
<text xml:space="preserve" text-anchor="middle" x="592.38" y="-287.7" font-family="Times,serif" font-size="14.00">Dataset_Generator</text>
</g>
<g id="clust5" class="cluster">
<title>cluster_outer3</title>
<polygon fill="lightyellow" stroke="black" points="111.88,-8 111.88,-305 407.88,-305 407.88,-8 111.88,-8"/>
<text xml:space="preserve" text-anchor="middle" x="259.88" y="-287.7" font-family="Times,serif" font-size="14.00">codegen.py</text>
</g>
<g id="clust6" class="cluster">
<title>cluster_inner1</title>
<polygon fill="#e6e6fa" stroke="black" points="119.88,-127 119.88,-203.5 399.88,-203.5 399.88,-127 119.88,-127"/>
<text xml:space="preserve" text-anchor="middle" x="259.88" y="-186.2" font-family="Times,serif" font-size="14.00">CsourceCodegen</text>
</g>
<g id="clust7" class="cluster">
<title>cluster_inner2</title>
<polygon fill="#e6e6fa" stroke="black" points="213.88,-16 213.88,-92.5 399.88,-92.5 399.88,-16 213.88,-16"/>
<text xml:space="preserve" text-anchor="middle" x="306.88" y="-75.2" font-family="Times,serif" font-size="14.00">Ccodegen</text>
</g>
<g id="clust8" class="cluster">
<title>cluster_outer4</title>
<polygon fill="lightyellow" stroke="black" points="415.88,-127 415.88,-203.5 765.88,-203.5 765.88,-127 415.88,-127"/>
<text xml:space="preserve" text-anchor="middle" x="590.88" y="-186.2" font-family="Times,serif" font-size="14.00">note.py</text>
</g>
<!-- relay_build -->
<g id="node1" class="node">
<title>relay_build</title>
<polygon fill="white" stroke="black" points="204.25,-422 121.5,-422 121.5,-386 204.25,-386 204.25,-422"/>
<text xml:space="preserve" text-anchor="middle" x="162.88" y="-398.95" font-family="Times,serif" font-size="14.00">relay.build()</text>
</g>
<!-- Compiler_space -->
<g id="node6" class="node">
<title>Compiler_space</title>
<polygon fill="lightgray" stroke="black" points="103.75,-272.5 0,-272.5 0,-236.5 103.75,-236.5 103.75,-272.5"/>
<text xml:space="preserve" text-anchor="middle" x="51.88" y="-249.45" font-family="Times,serif" font-size="14.00">Compiler Space</text>
</g>
<!-- relay_build&#45;&gt;Compiler_space -->
<g id="edge8" class="edge">
<title>relay_build&#45;&gt;Compiler_space</title>
<path fill="none" stroke="black" stroke-dasharray="5,2" d="M121.35,-387.71C108.84,-381.38 96.02,-372.92 86.88,-362 68.26,-339.76 59.46,-307.32 55.35,-284.1"/>
<polygon fill="black" stroke="black" points="58.84,-283.73 53.84,-274.39 51.92,-284.81 58.84,-283.73"/>
<text xml:space="preserve" text-anchor="middle" x="110.88" y="-348.7" font-family="Times,serif" font-size="14.00"> (2) Find</text>
</g>
<!-- DLA_compiler -->
<g id="node7" class="node">
<title>DLA_compiler</title>
<polygon fill="lightblue" stroke="black" points="298,-272.5 189.75,-272.5 189.75,-236.5 298,-236.5 298,-272.5"/>
<text xml:space="preserve" text-anchor="middle" x="243.88" y="-249.45" font-family="Times,serif" font-size="14.00">DLA_compiler()</text>
</g>
<!-- relay_build&#45;&gt;DLA_compiler -->
<g id="edge10" class="edge">
<title>relay_build&#45;&gt;DLA_compiler</title>
<path fill="none" stroke="black" stroke-dasharray="5,2" d="M172.48,-385.5C186.43,-360.11 212.4,-312.81 228.88,-282.8"/>
<polygon fill="black" stroke="black" points="231.8,-284.75 233.55,-274.3 225.67,-281.38 231.8,-284.75"/>
<text xml:space="preserve" text-anchor="middle" x="216.61" y="-348.7" font-family="Times,serif" font-size="14.00"> (4) Call</text>
</g>
<!-- dataset_gen -->
<g id="node2" class="node">
<title>dataset_gen</title>
<polygon fill="white" stroke="black" points="301.75,-422 222,-422 222,-386 301.75,-386 301.75,-422"/>
<text xml:space="preserve" text-anchor="middle" x="261.88" y="-398.95" font-family="Times,serif" font-size="14.00">dataset_gen</text>
</g>
<!-- gen_bin -->
<g id="node3" class="node">
<title>gen_bin</title>
<polygon fill="white" stroke="black" points="524.12,-272.5 431.62,-272.5 431.62,-236.5 524.12,-236.5 524.12,-272.5"/>
<text xml:space="preserve" text-anchor="middle" x="477.88" y="-249.45" font-family="Times,serif" font-size="14.00">gen_input_h()</text>
</g>
<!-- dataset_gen&#45;&gt;gen_bin -->
<g id="edge6" class="edge">
<title>dataset_gen&#45;&gt;gen_bin</title>
<path fill="none" stroke="black" d="M302.25,-391.28C334.15,-380.69 378.68,-362.86 411.88,-337.5 431.85,-322.24 449.41,-299.71 461.39,-282.13"/>
<polygon fill="black" stroke="black" points="464.02,-284.48 466.61,-274.21 458.18,-280.63 464.02,-284.48"/>
</g>
<!-- gen_float_array -->
<g id="node4" class="node">
<title>gen_float_array</title>
<polygon fill="white" stroke="black" points="653.12,-272.5 542.62,-272.5 542.62,-236.5 653.12,-236.5 653.12,-272.5"/>
<text xml:space="preserve" text-anchor="middle" x="597.88" y="-249.45" font-family="Times,serif" font-size="14.00">gen_float_array()</text>
</g>
<!-- fetch_data -->
<g id="node5" class="node">
<title>fetch_data</title>
<polygon fill="white" stroke="black" points="752.5,-272.5 671.25,-272.5 671.25,-236.5 752.5,-236.5 752.5,-272.5"/>
<text xml:space="preserve" text-anchor="middle" x="711.88" y="-249.45" font-family="Times,serif" font-size="14.00">fetch_data()</text>
</g>
<!-- Compiler_space&#45;&gt;relay_build -->
<g id="edge9" class="edge">
<title>Compiler_space&#45;&gt;relay_build</title>
<path fill="none" stroke="black" stroke-dasharray="5,2" d="M59.36,-272.87C68.27,-291.52 84.89,-320.75 107.88,-337.5 117.99,-344.87 125.33,-337.41 134.88,-345.5 143.93,-353.17 150.3,-364.46 154.66,-375.01"/>
<polygon fill="black" stroke="black" points="151.27,-375.92 157.97,-384.12 157.85,-373.53 151.27,-375.92"/>
<text xml:space="preserve" text-anchor="middle" x="157.71" y="-348.7" font-family="Times,serif" font-size="14.00"> (3)</text>
</g>
<!-- DLA_compiler&#45;&gt;Compiler_space -->
<g id="edge7" class="edge">
<title>DLA_compiler&#45;&gt;Compiler_space</title>
<path fill="none" stroke="black" stroke-dasharray="5,2" d="M189.33,-254.5C166.34,-254.5 139.43,-254.5 115.54,-254.5"/>
<polygon fill="black" stroke="black" points="115.6,-251 105.6,-254.5 115.6,-258 115.6,-251"/>
<text xml:space="preserve" text-anchor="middle" x="146.75" y="-260.7" font-family="Times,serif" font-size="14.00"> (1) Register</text>
</g>
<!-- create_c_source_module -->
<g id="node8" class="node">
<title>create_c_source_module</title>
<polygon fill="white" stroke="black" points="287.88,-171 127.88,-171 127.88,-135 287.88,-135 287.88,-171"/>
<text xml:space="preserve" text-anchor="middle" x="207.88" y="-147.95" font-family="Times,serif" font-size="14.00">create_c_source_module()</text>
</g>
<!-- DLA_compiler&#45;&gt;create_c_source_module -->
<g id="edge5" class="edge">
<title>DLA_compiler&#45;&gt;create_c_source_module</title>
<path fill="none" stroke="black" d="M237.6,-236.17C232.22,-221.28 224.35,-199.53 218.06,-182.14"/>
<polygon fill="black" stroke="black" points="221.4,-181.1 214.71,-172.89 214.82,-183.48 221.4,-181.1"/>
</g>
<!-- get_c_func -->
<g id="node9" class="node">
<title>get_c_func</title>
<polygon fill="white" stroke="black" points="391.38,-171 306.38,-171 306.38,-135 391.38,-135 391.38,-171"/>
<text xml:space="preserve" text-anchor="middle" x="348.88" y="-147.95" font-family="Times,serif" font-size="14.00">get_c_func()</text>
</g>
<!-- DLA_compiler&#45;&gt;get_c_func -->
<g id="edge4" class="edge">
<title>DLA_compiler&#45;&gt;get_c_func</title>
<path fill="none" stroke="black" d="M262.05,-236.4C272.29,-226.75 285.31,-214.46 296.88,-203.5 305.2,-195.61 314.26,-187 322.45,-179.2"/>
<polygon fill="black" stroke="black" points="324.68,-181.91 329.51,-172.47 319.85,-176.84 324.68,-181.91"/>
</g>
<!-- jit -->
<g id="node10" class="node">
<title>jit</title>
<polygon fill="white" stroke="black" points="275.88,-60 221.88,-60 221.88,-24 275.88,-24 275.88,-60"/>
<text xml:space="preserve" text-anchor="middle" x="248.88" y="-36.95" font-family="Times,serif" font-size="14.00">jit()</text>
</g>
<!-- get_c_func&#45;&gt;jit -->
<g id="edge1" class="edge">
<title>get_c_func&#45;&gt;jit</title>
<path fill="none" stroke="black" d="M328.73,-134.59C315.92,-123.15 299.29,-107.55 285.88,-92.5 279.45,-85.29 272.97,-77.03 267.27,-69.35"/>
<polygon fill="black" stroke="black" points="270.12,-67.32 261.41,-61.29 264.45,-71.43 270.12,-67.32"/>
</g>
<!-- visit_expr -->
<g id="node11" class="node">
<title>visit_expr</title>
<polygon fill="white" stroke="black" points="373.38,-60 294.38,-60 294.38,-24 373.38,-24 373.38,-60"/>
<text xml:space="preserve" text-anchor="middle" x="333.88" y="-36.95" font-family="Times,serif" font-size="14.00">visit_expr()</text>
</g>
<!-- get_c_func&#45;&gt;visit_expr -->
<g id="edge2" class="edge">
<title>get_c_func&#45;&gt;visit_expr</title>
<path fill="none" stroke="black" d="M346.53,-134.97C344.2,-118.03 340.58,-91.73 337.81,-71.59"/>
<polygon fill="black" stroke="black" points="341.29,-71.2 336.46,-61.77 334.35,-72.15 341.29,-71.2"/>
</g>
<!-- visit_expr&#45;&gt;visit_expr -->
<g id="edge3" class="edge">
<title>visit_expr&#45;&gt;visit_expr</title>
<path fill="none" stroke="black" d="M373.65,-54.37C383.77,-53.55 391.38,-49.43 391.38,-42 391.38,-37.7 388.83,-34.51 384.73,-32.43"/>
<polygon fill="black" stroke="black" points="385.67,-29.06 375.12,-30 383.96,-35.84 385.67,-29.06"/>
</g>
<!-- tvm_auto_args_NOTES -->
<g id="node12" class="node">
<title>tvm_auto_args_NOTES</title>
<polygon fill="lightblue" stroke="black" points="588.12,-171 423.62,-171 423.62,-135 588.12,-135 588.12,-171"/>
<text xml:space="preserve" text-anchor="middle" x="505.88" y="-147.95" font-family="Times,serif" font-size="14.00">tvm_auto_args_NOTES {}</text>
</g>
<!-- tvm_auto_args_NOTES&#45;&gt;visit_expr -->
<g id="edge11" class="edge">
<title>tvm_auto_args_NOTES&#45;&gt;visit_expr</title>
<path fill="none" stroke="black" stroke-dasharray="5,2" d="M478.62,-134.73C449.52,-116.29 403.23,-86.95 370.85,-66.43"/>
<polygon fill="black" stroke="black" points="372.88,-63.58 362.56,-61.18 369.14,-69.49 372.88,-63.58"/>
<text xml:space="preserve" text-anchor="middle" x="492.99" y="-103.7" font-family="Times,serif" font-size="14.00"> Get tensor info</text>
</g>
<!-- tvm_c_func_call_gen -->
<g id="node13" class="node">
<title>tvm_c_func_call_gen</title>
<polygon fill="lightblue" stroke="black" points="757.38,-171 606.38,-171 606.38,-135 757.38,-135 757.38,-171"/>
<text xml:space="preserve" text-anchor="middle" x="681.88" y="-147.95" font-family="Times,serif" font-size="14.00">tvm_c_func_call_gen {}</text>
</g>
<!-- tvm_c_func_call_gen&#45;&gt;visit_expr -->
<g id="edge12" class="edge">
<title>tvm_c_func_call_gen&#45;&gt;visit_expr</title>
<path fill="none" stroke="black" stroke-dasharray="5,2" d="M636.45,-134.53C608.73,-124.12 572.47,-110.94 539.88,-100.5 487.4,-83.69 426.54,-67.05 384.65,-56.03"/>
<polygon fill="black" stroke="black" points="385.66,-52.67 375.1,-53.52 383.88,-59.44 385.66,-52.67"/>
<text xml:space="preserve" text-anchor="middle" x="647.45" y="-103.7" font-family="Times,serif" font-size="14.00"> Get codegen function</text>
</g>
</g>
</svg>
