<?xml version="1.0" encoding="UTF-8" standalone="no"?>
<!DOCTYPE svg PUBLIC "-//W3C//DTD SVG 1.1//EN"
 "http://www.w3.org/Graphics/SVG/1.1/DTD/svg11.dtd">
<!-- Generated by graphviz version 13.0.0 (20250608.1624)
 -->
<!-- Pages: 1 -->
<svg width="260pt" height="58pt"
 viewBox="0.00 0.00 260.00 58.00" xmlns="http://www.w3.org/2000/svg" xmlns:xlink="http://www.w3.org/1999/xlink">
<g id="graph0" class="graph" transform="scale(1 1) rotate(0) translate(4 54)">
<polygon fill="white" stroke="none" points="-4,4 -4,-54 255.5,-54 255.5,4 -4,4"/>
<!-- bits -->
<g id="node1" class="node">
<title>bits</title>
<polygon fill="none" stroke="black" points="0,-0.5 0,-49.5 251.5,-49.5 251.5,-0.5 0,-0.5"/>
<text xml:space="preserve" text-anchor="middle" x="23.38" y="-32.2" font-family="Times,serif" font-size="14.00">9</text>
<polyline fill="none" stroke="black" points="0,-25 46.75,-25"/>
<text xml:space="preserve" text-anchor="middle" x="23.38" y="-7.7" font-family="Times,serif" font-size="14.00">mode</text>
<polyline fill="none" stroke="black" points="46.75,-0.5 46.75,-49.5"/>
<text xml:space="preserve" text-anchor="middle" x="58.12" y="-32.2" font-family="Times,serif" font-size="14.00">8</text>
<polyline fill="none" stroke="black" points="69.5,-25 69.5,-49.5"/>
<text xml:space="preserve" text-anchor="middle" x="80.88" y="-32.2" font-family="Times,serif" font-size="14.00">7</text>
<polyline fill="none" stroke="black" points="46.75,-25 92.25,-25"/>
<text xml:space="preserve" text-anchor="middle" x="69.5" y="-7.7" font-family="Times,serif" font-size="14.00">p&#45;1</text>
<polyline fill="none" stroke="black" points="92.25,-0.5 92.25,-49.5"/>
<text xml:space="preserve" text-anchor="middle" x="103.62" y="-32.2" font-family="Times,serif" font-size="14.00">6</text>
<polyline fill="none" stroke="black" points="115,-25 115,-49.5"/>
<text xml:space="preserve" text-anchor="middle" x="126.38" y="-32.2" font-family="Times,serif" font-size="14.00">5</text>
<polyline fill="none" stroke="black" points="137.75,-25 137.75,-49.5"/>
<text xml:space="preserve" text-anchor="middle" x="149.12" y="-32.2" font-family="Times,serif" font-size="14.00">4</text>
<polyline fill="none" stroke="black" points="160.5,-25 160.5,-49.5"/>
<text xml:space="preserve" text-anchor="middle" x="171.88" y="-32.2" font-family="Times,serif" font-size="14.00">3</text>
<polyline fill="none" stroke="black" points="183.25,-25 183.25,-49.5"/>
<text xml:space="preserve" text-anchor="middle" x="194.62" y="-32.2" font-family="Times,serif" font-size="14.00">2</text>
<polyline fill="none" stroke="black" points="92.25,-25 206,-25"/>
<text xml:space="preserve" text-anchor="middle" x="149.12" y="-7.7" font-family="Times,serif" font-size="14.00">F&#45;1</text>
<polyline fill="none" stroke="black" points="206,-0.5 206,-49.5"/>
<text xml:space="preserve" text-anchor="middle" x="217.38" y="-32.2" font-family="Times,serif" font-size="14.00">1</text>
<polyline fill="none" stroke="black" points="228.75,-25 228.75,-49.5"/>
<text xml:space="preserve" text-anchor="middle" x="240.12" y="-32.2" font-family="Times,serif" font-size="14.00">0</text>
<polyline fill="none" stroke="black" points="206,-25 251.5,-25"/>
<text xml:space="preserve" text-anchor="middle" x="228.75" y="-7.7" font-family="Times,serif" font-size="14.00">q&#45;1</text>
</g>
</g>
</svg>
