<?xml version="1.0" encoding="UTF-8" standalone="no"?>
<!DOCTYPE svg PUBLIC "-//W3C//DTD SVG 1.1//EN"
 "http://www.w3.org/Graphics/SVG/1.1/DTD/svg11.dtd">
<!-- Generated by graphviz version 13.0.0 (20250608.1624)
 -->
<!-- Pages: 1 -->
<svg width="472pt" height="58pt"
 viewBox="0.00 0.00 472.00 58.00" xmlns="http://www.w3.org/2000/svg" xmlns:xlink="http://www.w3.org/1999/xlink">
<g id="graph0" class="graph" transform="scale(1 1) rotate(0) translate(4 54)">
<polygon fill="white" stroke="none" points="-4,4 -4,-54 468,-54 468,4 -4,4"/>
<!-- bits -->
<g id="node1" class="node">
<title>bits</title>
<polygon fill="none" stroke="black" points="0,-0.5 0,-49.5 464,-49.5 464,-0.5 0,-0.5"/>
<text xml:space="preserve" text-anchor="middle" x="14.75" y="-32.2" font-family="Times,serif" font-size="14.00">31</text>
<polyline fill="none" stroke="black" points="29.5,-25 29.5,-49.5"/>
<text xml:space="preserve" text-anchor="middle" x="44.25" y="-32.2" font-family="Times,serif" font-size="14.00">30</text>
<polyline fill="none" stroke="black" points="59,-25 59,-49.5"/>
<text xml:space="preserve" text-anchor="middle" x="73.75" y="-32.2" font-family="Times,serif" font-size="14.00">29</text>
<polyline fill="none" stroke="black" points="0,-25 88.5,-25"/>
<text xml:space="preserve" text-anchor="middle" x="44.25" y="-7.7" font-family="Times,serif" font-size="14.00">reserved</text>
<polyline fill="none" stroke="black" points="88.5,-0.5 88.5,-49.5"/>
<text xml:space="preserve" text-anchor="middle" x="103.25" y="-32.2" font-family="Times,serif" font-size="14.00">28</text>
<polyline fill="none" stroke="black" points="118,-25 118,-49.5"/>
<text xml:space="preserve" text-anchor="middle" x="132.75" y="-32.2" font-family="Times,serif" font-size="14.00">27</text>
<polyline fill="none" stroke="black" points="147.5,-25 147.5,-49.5"/>
<text xml:space="preserve" text-anchor="middle" x="162.25" y="-32.2" font-family="Times,serif" font-size="14.00">26</text>
<polyline fill="none" stroke="black" points="88.5,-25 177,-25"/>
<text xml:space="preserve" text-anchor="middle" x="132.75" y="-7.7" font-family="Times,serif" font-size="14.00">PAD</text>
<polyline fill="none" stroke="black" points="177,-0.5 177,-49.5"/>
<text xml:space="preserve" text-anchor="middle" x="191.75" y="-32.2" font-family="Times,serif" font-size="14.00">25</text>
<polyline fill="none" stroke="black" points="206.5,-25 206.5,-49.5"/>
<text xml:space="preserve" text-anchor="middle" x="221.25" y="-32.2" font-family="Times,serif" font-size="14.00">24</text>
<polyline fill="none" stroke="black" points="177,-25 236,-25"/>
<text xml:space="preserve" text-anchor="middle" x="206.5" y="-7.7" font-family="Times,serif" font-size="14.00">U</text>
<polyline fill="none" stroke="black" points="236,-0.5 236,-49.5"/>
<text xml:space="preserve" text-anchor="middle" x="250.75" y="-32.2" font-family="Times,serif" font-size="14.00">23</text>
<polyline fill="none" stroke="black" points="265.5,-25 265.5,-49.5"/>
<text xml:space="preserve" text-anchor="middle" x="280.25" y="-32.2" font-family="Times,serif" font-size="14.00">22</text>
<polyline fill="none" stroke="black" points="236,-25 295,-25"/>
<text xml:space="preserve" text-anchor="middle" x="265.5" y="-7.7" font-family="Times,serif" font-size="14.00">R</text>
<polyline fill="none" stroke="black" points="295,-0.5 295,-49.5"/>
<text xml:space="preserve" text-anchor="middle" x="309.75" y="-32.2" font-family="Times,serif" font-size="14.00">21</text>
<polyline fill="none" stroke="black" points="324.5,-25 324.5,-49.5"/>
<text xml:space="preserve" text-anchor="middle" x="339.25" y="-32.2" font-family="Times,serif" font-size="14.00">20</text>
<polyline fill="none" stroke="black" points="295,-25 354,-25"/>
<text xml:space="preserve" text-anchor="middle" x="324.5" y="-7.7" font-family="Times,serif" font-size="14.00">S</text>
<polyline fill="none" stroke="black" points="354,-0.5 354,-49.5"/>
<text xml:space="preserve" text-anchor="middle" x="384.88" y="-32.2" font-family="Times,serif" font-size="14.00">19 ... 10</text>
<polyline fill="none" stroke="black" points="354,-25 415.75,-25"/>
<text xml:space="preserve" text-anchor="middle" x="384.88" y="-7.7" font-family="Times,serif" font-size="14.00">C</text>
<polyline fill="none" stroke="black" points="415.75,-0.5 415.75,-49.5"/>
<text xml:space="preserve" text-anchor="middle" x="439.88" y="-32.2" font-family="Times,serif" font-size="14.00">9 ... 0</text>
<polyline fill="none" stroke="black" points="415.75,-25 464,-25"/>
<text xml:space="preserve" text-anchor="middle" x="439.88" y="-7.7" font-family="Times,serif" font-size="14.00">M</text>
</g>
</g>
</svg>
