<?xml version="1.0" encoding="UTF-8" standalone="no"?>
<!DOCTYPE svg PUBLIC "-//W3C//DTD SVG 1.1//EN"
 "http://www.w3.org/Graphics/SVG/1.1/DTD/svg11.dtd">
<!-- Generated by graphviz version 13.0.0 (20250608.1624)
 -->
<!-- Pages: 1 -->
<svg width="403pt" height="58pt"
 viewBox="0.00 0.00 403.00 58.00" xmlns="http://www.w3.org/2000/svg" xmlns:xlink="http://www.w3.org/1999/xlink">
<g id="graph0" class="graph" transform="scale(1 1) rotate(0) translate(4 54)">
<polygon fill="white" stroke="none" points="-4,4 -4,-54 399,-54 399,4 -4,4"/>
<!-- bits -->
<g id="node1" class="node">
<title>bits</title>
<polygon fill="none" stroke="black" points="0,-0.5 0,-49.5 395,-49.5 395,-0.5 0,-0.5"/>
<text xml:space="preserve" text-anchor="middle" x="30.88" y="-32.2" font-family="Times,serif" font-size="14.00">31 ... 10</text>
<polyline fill="none" stroke="black" points="0,-25 61.75,-25"/>
<text xml:space="preserve" text-anchor="middle" x="30.88" y="-7.7" font-family="Times,serif" font-size="14.00">reserved</text>
<polyline fill="none" stroke="black" points="61.75,-0.5 61.75,-49.5"/>
<text xml:space="preserve" text-anchor="middle" x="73.12" y="-32.2" font-family="Times,serif" font-size="14.00">9</text>
<polyline fill="none" stroke="black" points="84.5,-25 84.5,-49.5"/>
<text xml:space="preserve" text-anchor="middle" x="95.88" y="-32.2" font-family="Times,serif" font-size="14.00">8</text>
<polyline fill="none" stroke="black" points="107.25,-25 107.25,-49.5"/>
<text xml:space="preserve" text-anchor="middle" x="118.62" y="-32.2" font-family="Times,serif" font-size="14.00">7</text>
<polyline fill="none" stroke="black" points="130,-25 130,-49.5"/>
<text xml:space="preserve" text-anchor="middle" x="141.38" y="-32.2" font-family="Times,serif" font-size="14.00">6</text>
<polyline fill="none" stroke="black" points="152.75,-25 152.75,-49.5"/>
<text xml:space="preserve" text-anchor="middle" x="164.12" y="-32.2" font-family="Times,serif" font-size="14.00">5</text>
<polyline fill="none" stroke="black" points="175.5,-25 175.5,-49.5"/>
<text xml:space="preserve" text-anchor="middle" x="186.88" y="-32.2" font-family="Times,serif" font-size="14.00">4</text>
<polyline fill="none" stroke="black" points="61.75,-25 198.25,-25"/>
<text xml:space="preserve" text-anchor="middle" x="130" y="-7.7" font-family="Times,serif" font-size="14.00">scale</text>
<polyline fill="none" stroke="black" points="198.25,-0.5 198.25,-49.5"/>
<text xml:space="preserve" text-anchor="middle" x="231.75" y="-32.2" font-family="Times,serif" font-size="14.00">3</text>
<polyline fill="none" stroke="black" points="198.25,-25 265.25,-25"/>
<text xml:space="preserve" text-anchor="middle" x="231.75" y="-7.7" font-family="Times,serif" font-size="14.00">operation</text>
<polyline fill="none" stroke="black" points="265.25,-0.5 265.25,-49.5"/>
<text xml:space="preserve" text-anchor="middle" x="283.75" y="-32.2" font-family="Times,serif" font-size="14.00">2</text>
<polyline fill="none" stroke="black" points="265.25,-25 302.25,-25"/>
<text xml:space="preserve" text-anchor="middle" x="283.75" y="-7.7" font-family="Times,serif" font-size="14.00">relu</text>
<polyline fill="none" stroke="black" points="302.25,-0.5 302.25,-49.5"/>
<text xml:space="preserve" text-anchor="middle" x="334.25" y="-32.2" font-family="Times,serif" font-size="14.00">1</text>
<polyline fill="none" stroke="black" points="302.25,-25 366.25,-25"/>
<text xml:space="preserve" text-anchor="middle" x="334.25" y="-7.7" font-family="Times,serif" font-size="14.00">maxpool</text>
<polyline fill="none" stroke="black" points="366.25,-0.5 366.25,-49.5"/>
<text xml:space="preserve" text-anchor="middle" x="380.62" y="-32.2" font-family="Times,serif" font-size="14.00">0</text>
<polyline fill="none" stroke="black" points="366.25,-25 395,-25"/>
<text xml:space="preserve" text-anchor="middle" x="380.62" y="-7.7" font-family="Times,serif" font-size="14.00">en</text>
</g>
</g>
</svg>
