<?xml version="1.0" encoding="UTF-8" standalone="no"?>
<!DOCTYPE svg PUBLIC "-//W3C//DTD SVG 1.1//EN"
 "http://www.w3.org/Graphics/SVG/1.1/DTD/svg11.dtd">
<!-- Generated by graphviz version 13.0.0 (20250608.1624)
 -->
<!-- Pages: 1 -->
<svg width="396pt" height="58pt"
 viewBox="0.00 0.00 396.00 58.00" xmlns="http://www.w3.org/2000/svg" xmlns:xlink="http://www.w3.org/1999/xlink">
<g id="graph0" class="graph" transform="scale(1 1) rotate(0) translate(4 54)">
<polygon fill="white" stroke="none" points="-4,4 -4,-54 391.5,-54 391.5,4 -4,4"/>
<!-- bits -->
<g id="node1" class="node">
<title>bits</title>
<polygon fill="none" stroke="black" points="0,-0.5 0,-49.5 387.5,-49.5 387.5,-0.5 0,-0.5"/>
<text xml:space="preserve" text-anchor="middle" x="13.62" y="-32.2" font-family="Times,serif" font-size="14.00">...</text>
<polyline fill="none" stroke="black" points="0,-25 27.25,-25"/>
<text xml:space="preserve" text-anchor="middle" x="13.62" y="-7.7" font-family="Times,serif" font-size="14.00">...</text>
<polyline fill="none" stroke="black" points="27.25,-0.5 27.25,-49.5"/>
<text xml:space="preserve" text-anchor="middle" x="84" y="-32.2" font-family="Times,serif" font-size="14.00">program</text>
<polyline fill="none" stroke="black" points="140.75,-25 140.75,-49.5"/>
<text xml:space="preserve" text-anchor="middle" x="197.62" y="-32.2" font-family="Times,serif" font-size="14.00">heap &gt;&gt;</text>
<polyline fill="none" stroke="black" points="27.25,-25 254.75,-25"/>
<text xml:space="preserve" text-anchor="middle" x="141" y="-7.7" font-family="Times,serif" font-size="14.00">mapping to AXI (4GB memory space)</text>
<polyline fill="none" stroke="black" points="254.75,-0.5 254.75,-49.5"/>
<text xml:space="preserve" text-anchor="middle" x="285.62" y="-32.2" font-family="Times,serif" font-size="14.00">&lt;&lt; heap</text>
<polyline fill="none" stroke="black" points="316.5,-25 316.5,-49.5"/>
<text xml:space="preserve" text-anchor="middle" x="338.38" y="-32.2" font-family="Times,serif" font-size="14.00">stack</text>
<polyline fill="none" stroke="black" points="360.25,-25 360.25,-49.5"/>
<text xml:space="preserve" text-anchor="middle" x="373.88" y="-32.2" font-family="Times,serif" font-size="14.00">...</text>
<polyline fill="none" stroke="black" points="254.75,-25 387.5,-25"/>
<text xml:space="preserve" text-anchor="middle" x="321.12" y="-7.7" font-family="Times,serif" font-size="14.00">(Segmentation fault)</text>
</g>
</g>
</svg>
