<?xml version="1.0" encoding="UTF-8" standalone="no"?>
<!DOCTYPE svg PUBLIC "-//W3C//DTD SVG 1.1//EN"
 "http://www.w3.org/Graphics/SVG/1.1/DTD/svg11.dtd">
<!-- Generated by graphviz version 13.0.0 (20250608.1624)
 -->
<!-- Pages: 1 -->
<svg width="474pt" height="58pt"
 viewBox="0.00 0.00 474.00 58.00" xmlns="http://www.w3.org/2000/svg" xmlns:xlink="http://www.w3.org/1999/xlink">
<g id="graph0" class="graph" transform="scale(1 1) rotate(0) translate(4 54)">
<polygon fill="white" stroke="none" points="-4,4 -4,-54 470.25,-54 470.25,4 -4,4"/>
<!-- bits -->
<g id="node1" class="node">
<title>bits</title>
<polygon fill="none" stroke="black" points="0,-0.5 0,-49.5 466.25,-49.5 466.25,-0.5 0,-0.5"/>
<text xml:space="preserve" text-anchor="middle" x="30.88" y="-32.2" font-family="Times,serif" font-size="14.00">31 ... 16</text>
<polyline fill="none" stroke="black" points="0,-25 61.75,-25"/>
<text xml:space="preserve" text-anchor="middle" x="30.88" y="-7.7" font-family="Times,serif" font-size="14.00">reserved</text>
<polyline fill="none" stroke="black" points="61.75,-0.5 61.75,-49.5"/>
<text xml:space="preserve" text-anchor="middle" x="76.5" y="-32.2" font-family="Times,serif" font-size="14.00">15</text>
<polyline fill="none" stroke="black" points="91.25,-25 91.25,-49.5"/>
<text xml:space="preserve" text-anchor="middle" x="106" y="-32.2" font-family="Times,serif" font-size="14.00">14</text>
<polyline fill="none" stroke="black" points="120.75,-25 120.75,-49.5"/>
<text xml:space="preserve" text-anchor="middle" x="135.5" y="-32.2" font-family="Times,serif" font-size="14.00">13</text>
<polyline fill="none" stroke="black" points="150.25,-25 150.25,-49.5"/>
<text xml:space="preserve" text-anchor="middle" x="165" y="-32.2" font-family="Times,serif" font-size="14.00">12</text>
<polyline fill="none" stroke="black" points="179.75,-25 179.75,-49.5"/>
<text xml:space="preserve" text-anchor="middle" x="194.5" y="-32.2" font-family="Times,serif" font-size="14.00">11</text>
<polyline fill="none" stroke="black" points="209.25,-25 209.25,-49.5"/>
<text xml:space="preserve" text-anchor="middle" x="224" y="-32.2" font-family="Times,serif" font-size="14.00">10</text>
<polyline fill="none" stroke="black" points="238.75,-25 238.75,-49.5"/>
<text xml:space="preserve" text-anchor="middle" x="250.12" y="-32.2" font-family="Times,serif" font-size="14.00">9</text>
<polyline fill="none" stroke="black" points="261.5,-25 261.5,-49.5"/>
<text xml:space="preserve" text-anchor="middle" x="272.88" y="-32.2" font-family="Times,serif" font-size="14.00">8</text>
<polyline fill="none" stroke="black" points="61.75,-25 284.25,-25"/>
<text xml:space="preserve" text-anchor="middle" x="173" y="-7.7" font-family="Times,serif" font-size="14.00">W</text>
<polyline fill="none" stroke="black" points="284.25,-0.5 284.25,-49.5"/>
<text xml:space="preserve" text-anchor="middle" x="295.62" y="-32.2" font-family="Times,serif" font-size="14.00">7</text>
<polyline fill="none" stroke="black" points="307,-25 307,-49.5"/>
<text xml:space="preserve" text-anchor="middle" x="318.38" y="-32.2" font-family="Times,serif" font-size="14.00">6</text>
<polyline fill="none" stroke="black" points="329.75,-25 329.75,-49.5"/>
<text xml:space="preserve" text-anchor="middle" x="341.12" y="-32.2" font-family="Times,serif" font-size="14.00">5</text>
<polyline fill="none" stroke="black" points="352.5,-25 352.5,-49.5"/>
<text xml:space="preserve" text-anchor="middle" x="363.88" y="-32.2" font-family="Times,serif" font-size="14.00">4</text>
<polyline fill="none" stroke="black" points="375.25,-25 375.25,-49.5"/>
<text xml:space="preserve" text-anchor="middle" x="386.62" y="-32.2" font-family="Times,serif" font-size="14.00">3</text>
<polyline fill="none" stroke="black" points="398,-25 398,-49.5"/>
<text xml:space="preserve" text-anchor="middle" x="409.38" y="-32.2" font-family="Times,serif" font-size="14.00">2</text>
<polyline fill="none" stroke="black" points="420.75,-25 420.75,-49.5"/>
<text xml:space="preserve" text-anchor="middle" x="432.12" y="-32.2" font-family="Times,serif" font-size="14.00">1</text>
<polyline fill="none" stroke="black" points="443.5,-25 443.5,-49.5"/>
<text xml:space="preserve" text-anchor="middle" x="454.88" y="-32.2" font-family="Times,serif" font-size="14.00">0</text>
<polyline fill="none" stroke="black" points="284.25,-25 466.25,-25"/>
<text xml:space="preserve" text-anchor="middle" x="375.25" y="-7.7" font-family="Times,serif" font-size="14.00">H</text>
</g>
</g>
</svg>
