<?xml version="1.0" encoding="UTF-8" standalone="no"?>
<!DOCTYPE svg PUBLIC "-//W3C//DTD SVG 1.1//EN"
 "http://www.w3.org/Graphics/SVG/1.1/DTD/svg11.dtd">
<!-- Generated by graphviz version 13.0.0 (20250608.1624)
 -->
<!-- Title: tvm_codegen_flow Pages: 1 -->
<svg width="307pt" height="347pt"
 viewBox="0.00 0.00 307.00 347.00" xmlns="http://www.w3.org/2000/svg" xmlns:xlink="http://www.w3.org/1999/xlink">
<g id="graph0" class="graph" transform="scale(1 1) rotate(0) translate(4 343)">
<title>tvm_codegen_flow</title>
<polygon fill="white" stroke="none" points="-4,4 -4,-343 302.62,-343 302.62,4 -4,4"/>
<g id="clust1" class="cluster">
<title>cluster_ir</title>
<polygon fill="none" stroke="lightgray" stroke-dasharray="5,2" points="138,-171.25 138,-331 286,-331 286,-171.25 138,-171.25"/>
<text xml:space="preserve" text-anchor="middle" x="212" y="-317.5" font-family="Times,serif" font-size="10.00">Intermediate Representation (IR)</text>
</g>
<g id="clust2" class="cluster">
<title>cluster_codegen</title>
<polygon fill="none" stroke="lightgray" stroke-dasharray="5,2" points="8,-8 8,-152.25 172,-152.25 172,-8 8,-8"/>
<text xml:space="preserve" text-anchor="middle" x="90" y="-138.75" font-family="Times,serif" font-size="10.00">Code Generation</text>
</g>
<!-- relay -->
<g id="node1" class="node">
<title>relay</title>
<polygon fill="#c6dbef" stroke="black" points="200,-303.75 146,-303.75 146,-267.75 200,-267.75 200,-303.75"/>
<text xml:space="preserve" text-anchor="middle" x="173" y="-280.32" font-family="Arial" font-size="14.00">relay</text>
</g>
<!-- fused_relay -->
<g id="node2" class="node">
<title>fused_relay</title>
<polygon fill="#c6dbef" stroke="black" points="228,-215.25 146,-215.25 146,-179.25 228,-179.25 228,-215.25"/>
<text xml:space="preserve" text-anchor="middle" x="187" y="-191.82" font-family="Arial" font-size="14.00">fused relay</text>
</g>
<!-- relay&#45;&gt;fused_relay -->
<g id="edge1" class="edge">
<title>relay&#45;&gt;fused_relay</title>
<path fill="none" stroke="black" d="M175.77,-267.66C177.65,-256.01 180.19,-240.3 182.38,-226.77"/>
<polygon fill="black" stroke="black" points="185.81,-227.53 183.95,-217.09 178.9,-226.41 185.81,-227.53"/>
<text xml:space="preserve" text-anchor="middle" x="234.13" y="-236.45" font-family="Times,serif" font-size="14.00"> &#160;&#160;merge composite</text>
</g>
<!-- codegen -->
<g id="node3" class="node">
<title>codegen</title>
<polygon fill="#c6dbef" stroke="black" points="163.62,-125 82.38,-125 82.38,-89 163.62,-89 163.62,-125"/>
<text xml:space="preserve" text-anchor="middle" x="123" y="-101.58" font-family="Arial" font-size="14.00">C codegen</text>
</g>
<!-- fused_relay&#45;&gt;codegen -->
<g id="edge2" class="edge">
<title>fused_relay&#45;&gt;codegen</title>
<path fill="none" stroke="black" d="M174.36,-178.81C165.15,-166.12 152.53,-148.71 142.1,-134.33"/>
<polygon fill="black" stroke="black" points="145.21,-132.66 136.51,-126.62 139.54,-136.77 145.21,-132.66"/>
</g>
<!-- runtime -->
<g id="node6" class="node">
<title>runtime</title>
<polygon fill="#fbb4ae" stroke="black" points="298.62,-52 181.38,-52 181.38,-16 298.62,-16 298.62,-52"/>
<text xml:space="preserve" text-anchor="middle" x="240" y="-28.57" font-family="Arial" font-size="14.00">runtime (.c/.json)</text>
</g>
<!-- fused_relay&#45;&gt;runtime -->
<g id="edge3" class="edge">
<title>fused_relay&#45;&gt;runtime</title>
<path fill="none" stroke="black" d="M192.98,-178.84C202.13,-150.64 219.7,-96.52 230.58,-63.01"/>
<polygon fill="black" stroke="black" points="233.9,-64.12 233.66,-53.53 227.24,-61.96 233.9,-64.12"/>
</g>
<!-- model_c -->
<g id="node4" class="node">
<title>model_c</title>
<polygon fill="#ccebc5" stroke="black" points="80,-52 16,-52 16,-16 80,-16 80,-52"/>
<text xml:space="preserve" text-anchor="middle" x="48" y="-28.57" font-family="Arial" font-size="14.00">model.c</text>
</g>
<!-- codegen&#45;&gt;model_c -->
<g id="edge4" class="edge">
<title>codegen&#45;&gt;model_c</title>
<path fill="none" stroke="black" d="M104.84,-88.81C95.7,-80.16 84.44,-69.5 74.36,-59.96"/>
<polygon fill="black" stroke="black" points="77.02,-57.65 67.35,-53.32 72.2,-62.73 77.02,-57.65"/>
</g>
<!-- weight_c -->
<g id="node5" class="node">
<title>weight_c</title>
<polygon fill="#ccebc5" stroke="black" points="163.75,-52 98.25,-52 98.25,-16 163.75,-16 163.75,-52"/>
<text xml:space="preserve" text-anchor="middle" x="131" y="-28.57" font-family="Arial" font-size="14.00">weight.c</text>
</g>
<!-- codegen&#45;&gt;weight_c -->
<g id="edge5" class="edge">
<title>codegen&#45;&gt;weight_c</title>
<path fill="none" stroke="black" d="M124.94,-88.81C125.8,-81.14 126.84,-71.89 127.82,-63.24"/>
<polygon fill="black" stroke="black" points="131.27,-63.86 128.91,-53.53 124.31,-63.08 131.27,-63.86"/>
</g>
<!-- codegen&#45;&gt;runtime -->
<g id="edge6" class="edge">
<title>codegen&#45;&gt;runtime</title>
<path fill="none" stroke="black" d="M151.62,-88.63C166.64,-79.52 185.24,-68.23 201.5,-58.36"/>
<polygon fill="black" stroke="black" points="203.24,-61.4 209.97,-53.22 199.61,-55.42 203.24,-61.4"/>
</g>
</g>
</svg>
