<?xml version="1.0" encoding="UTF-8" standalone="no"?>
<!DOCTYPE svg PUBLIC "-//W3C//DTD SVG 1.1//EN"
 "http://www.w3.org/Graphics/SVG/1.1/DTD/svg11.dtd">
<!-- Generated by graphviz version 13.0.0 (20250608.1624)
 -->
<!-- Title: pattern Pages: 1 -->
<svg width="604pt" height="643pt"
 viewBox="0.00 0.00 604.00 643.00" xmlns="http://www.w3.org/2000/svg" xmlns:xlink="http://www.w3.org/1999/xlink">
<g id="graph0" class="graph" transform="scale(1 1) rotate(0) translate(4 638.5)">
<title>pattern</title>
<polygon fill="white" stroke="none" points="-4,4 -4,-638.5 600.25,-638.5 600.25,4 -4,4"/>
<!-- i -->
<g id="node1" class="node">
<title>i</title>
<polygon fill="lightyellow" stroke="lightyellow" points="306.25,-634.5 243,-634.5 243,-593.5 306.25,-593.5 306.25,-634.5"/>
<text xml:space="preserve" text-anchor="middle" x="274.62" y="-617.2" font-family="Times,serif" font-size="14.00">wildcard</text>
<text xml:space="preserve" text-anchor="middle" x="274.62" y="-600.7" font-family="Times,serif" font-size="14.00">(i)</text>
</g>
<!-- dq_i -->
<g id="node10" class="node">
<title>dq_i</title>
<polygon fill="lightblue" stroke="lightblue" points="345.88,-554 271.38,-554 271.38,-518 345.88,-518 345.88,-554"/>
<text xml:space="preserve" text-anchor="middle" x="308.62" y="-530.95" font-family="Times,serif" font-size="14.00">dequantize</text>
</g>
<!-- i&#45;&gt;dq_i -->
<g id="edge1" class="edge">
<title>i&#45;&gt;dq_i</title>
<path fill="none" stroke="black" d="M283.56,-593.03C287.43,-584.37 292.04,-574.08 296.23,-564.7"/>
<polygon fill="black" stroke="black" points="299.4,-566.19 300.29,-555.64 293.01,-563.33 299.4,-566.19"/>
</g>
<!-- w -->
<g id="node2" class="node">
<title>w</title>
<polygon fill="lightyellow" stroke="lightyellow" points="144.25,-634.5 81,-634.5 81,-593.5 144.25,-593.5 144.25,-634.5"/>
<text xml:space="preserve" text-anchor="middle" x="112.62" y="-617.2" font-family="Times,serif" font-size="14.00">wildcard</text>
<text xml:space="preserve" text-anchor="middle" x="112.62" y="-600.7" font-family="Times,serif" font-size="14.00">(w)</text>
</g>
<!-- dq_w -->
<g id="node11" class="node">
<title>dq_w</title>
<polygon fill="lightblue" stroke="lightblue" points="191.88,-554 117.38,-554 117.38,-518 191.88,-518 191.88,-554"/>
<text xml:space="preserve" text-anchor="middle" x="154.62" y="-530.95" font-family="Times,serif" font-size="14.00">dequantize</text>
</g>
<!-- w&#45;&gt;dq_w -->
<g id="edge4" class="edge">
<title>w&#45;&gt;dq_w</title>
<path fill="none" stroke="black" d="M123.66,-593.03C128.55,-584.18 134.38,-573.63 139.65,-564.09"/>
<polygon fill="black" stroke="black" points="142.58,-566.02 144.36,-555.58 136.46,-562.64 142.58,-566.02"/>
</g>
<!-- b -->
<g id="node3" class="node">
<title>b</title>
<polygon fill="lightyellow" stroke="lightyellow" points="515.25,-556.5 452,-556.5 452,-515.5 515.25,-515.5 515.25,-556.5"/>
<text xml:space="preserve" text-anchor="middle" x="483.62" y="-539.2" font-family="Times,serif" font-size="14.00">wildcard</text>
<text xml:space="preserve" text-anchor="middle" x="483.62" y="-522.7" font-family="Times,serif" font-size="14.00">(b)</text>
</g>
<!-- dq_b -->
<g id="node12" class="node">
<title>dq_b</title>
<polygon fill="lightblue" stroke="lightblue" points="481.88,-463 407.38,-463 407.38,-427 481.88,-427 481.88,-463"/>
<text xml:space="preserve" text-anchor="middle" x="444.62" y="-439.95" font-family="Times,serif" font-size="14.00">dequantize</text>
</g>
<!-- b&#45;&gt;dq_b -->
<g id="edge7" class="edge">
<title>b&#45;&gt;dq_b</title>
<path fill="none" stroke="black" d="M474.97,-515.25C469.59,-502.96 462.59,-486.99 456.67,-473.48"/>
<polygon fill="black" stroke="black" points="460.03,-472.43 452.81,-464.68 453.62,-475.24 460.03,-472.43"/>
</g>
<!-- wi1 -->
<g id="node4" class="node">
<title>wi1</title>
<polygon fill="#ffec8b" stroke="#ffec8b" points="387.25,-632 324,-632 324,-596 387.25,-596 387.25,-632"/>
<text xml:space="preserve" text-anchor="middle" x="355.62" y="-608.95" font-family="Times,serif" font-size="14.00">wildcard</text>
</g>
<!-- wi1&#45;&gt;dq_i -->
<g id="edge2" class="edge">
<title>wi1&#45;&gt;dq_i</title>
<path fill="none" stroke="black" d="M344.96,-595.75C339.17,-586.4 331.89,-574.61 325.36,-564.06"/>
<polygon fill="black" stroke="black" points="328.44,-562.39 320.21,-555.73 322.49,-566.07 328.44,-562.39"/>
</g>
<!-- wi2 -->
<g id="node5" class="node">
<title>wi2</title>
<polygon fill="#ffec8b" stroke="#ffec8b" points="468.25,-632 405,-632 405,-596 468.25,-596 468.25,-632"/>
<text xml:space="preserve" text-anchor="middle" x="436.62" y="-608.95" font-family="Times,serif" font-size="14.00">wildcard</text>
</g>
<!-- wi2&#45;&gt;dq_i -->
<g id="edge3" class="edge">
<title>wi2&#45;&gt;dq_i</title>
<path fill="none" stroke="black" d="M407.26,-595.56C389.53,-585.04 366.74,-571.51 347.53,-560.1"/>
<polygon fill="black" stroke="black" points="349.54,-557.22 339.16,-555.13 345.97,-563.24 349.54,-557.22"/>
</g>
<!-- ww1 -->
<g id="node6" class="node">
<title>ww1</title>
<polygon fill="#ffec8b" stroke="#ffec8b" points="225.25,-632 162,-632 162,-596 225.25,-596 225.25,-632"/>
<text xml:space="preserve" text-anchor="middle" x="193.62" y="-608.95" font-family="Times,serif" font-size="14.00">wildcard</text>
</g>
<!-- ww1&#45;&gt;dq_w -->
<g id="edge5" class="edge">
<title>ww1&#45;&gt;dq_w</title>
<path fill="none" stroke="black" d="M184.78,-595.75C180.02,-586.49 174.05,-574.86 168.68,-564.39"/>
<polygon fill="black" stroke="black" points="171.95,-563.09 164.27,-555.79 165.72,-566.28 171.95,-563.09"/>
</g>
<!-- ww2 -->
<g id="node7" class="node">
<title>ww2</title>
<polygon fill="#ffec8b" stroke="#ffec8b" points="63.25,-632 0,-632 0,-596 63.25,-596 63.25,-632"/>
<text xml:space="preserve" text-anchor="middle" x="31.62" y="-608.95" font-family="Times,serif" font-size="14.00">wildcard</text>
</g>
<!-- ww2&#45;&gt;dq_w -->
<g id="edge6" class="edge">
<title>ww2&#45;&gt;dq_w</title>
<path fill="none" stroke="black" d="M59.84,-595.56C76.8,-585.09 98.58,-571.63 116.99,-560.26"/>
<polygon fill="black" stroke="black" points="118.58,-563.38 125.25,-555.15 114.9,-557.43 118.58,-563.38"/>
</g>
<!-- wb1 -->
<g id="node8" class="node">
<title>wb1</title>
<polygon fill="#ffec8b" stroke="#ffec8b" points="596.25,-554 533,-554 533,-518 596.25,-518 596.25,-554"/>
<text xml:space="preserve" text-anchor="middle" x="564.62" y="-530.95" font-family="Times,serif" font-size="14.00">wildcard</text>
</g>
<!-- wb1&#45;&gt;dq_b -->
<g id="edge8" class="edge">
<title>wb1&#45;&gt;dq_b</title>
<path fill="none" stroke="black" d="M541.2,-517.63C522.95,-504.09 497.39,-485.14 477.15,-470.13"/>
<polygon fill="black" stroke="black" points="479.32,-467.38 469.2,-464.23 475.15,-473 479.32,-467.38"/>
</g>
<!-- wb2 -->
<g id="node9" class="node">
<title>wb2</title>
<polygon fill="#ffec8b" stroke="#ffec8b" points="434.25,-554 371,-554 371,-518 434.25,-518 434.25,-554"/>
<text xml:space="preserve" text-anchor="middle" x="402.62" y="-530.95" font-family="Times,serif" font-size="14.00">wildcard</text>
</g>
<!-- wb2&#45;&gt;dq_b -->
<g id="edge9" class="edge">
<title>wb2&#45;&gt;dq_b</title>
<path fill="none" stroke="black" d="M410.72,-517.84C416.61,-505.36 424.71,-488.2 431.51,-473.78"/>
<polygon fill="black" stroke="black" points="434.66,-475.32 435.76,-464.78 428.33,-472.33 434.66,-475.32"/>
</g>
<!-- conv -->
<g id="node13" class="node">
<title>conv</title>
<polygon fill="lightblue" stroke="lightblue" points="332.5,-463 276.75,-463 276.75,-427 332.5,-427 332.5,-463"/>
<text xml:space="preserve" text-anchor="middle" x="304.62" y="-439.95" font-family="Times,serif" font-size="14.00">conv2d</text>
</g>
<!-- dq_i&#45;&gt;conv -->
<g id="edge10" class="edge">
<title>dq_i&#45;&gt;conv</title>
<path fill="none" stroke="black" d="M307.03,-517.84C306.5,-511.46 305.96,-504.15 305.62,-497.5 305.26,-490.09 305.02,-482.07 304.87,-474.61"/>
<polygon fill="black" stroke="black" points="308.37,-474.63 304.72,-464.69 301.38,-474.74 308.37,-474.63"/>
<text xml:space="preserve" text-anchor="middle" x="349.12" y="-484.2" font-family="Times,serif" font-size="14.00"> &#160;&#160;dequantized_i</text>
</g>
<!-- dq_w&#45;&gt;conv -->
<g id="edge11" class="edge">
<title>dq_w&#45;&gt;conv</title>
<path fill="none" stroke="black" d="M168.09,-517.65C177.95,-505.93 192.26,-490.86 207.62,-481 225.22,-469.71 246.94,-461.44 265.37,-455.78"/>
<polygon fill="black" stroke="black" points="266.27,-459.16 274.9,-453.01 264.32,-452.44 266.27,-459.16"/>
<text xml:space="preserve" text-anchor="middle" x="254.12" y="-484.2" font-family="Times,serif" font-size="14.00"> dequantized_w &#160;</text>
</g>
<!-- bias_add -->
<g id="node14" class="node">
<title>bias_add</title>
<polygon fill="lightblue" stroke="lightblue" points="423.62,-374.5 359.62,-374.5 359.62,-338.5 423.62,-338.5 423.62,-374.5"/>
<text xml:space="preserve" text-anchor="middle" x="391.62" y="-351.45" font-family="Times,serif" font-size="14.00">bias_add</text>
</g>
<!-- dq_b&#45;&gt;bias_add -->
<g id="edge13" class="edge">
<title>dq_b&#45;&gt;bias_add</title>
<path fill="none" stroke="black" d="M437.43,-426.79C432.86,-416.53 426.52,-403.42 419.62,-392.5 417.77,-389.57 415.72,-386.6 413.59,-383.69"/>
<polygon fill="black" stroke="black" points="416.48,-381.71 407.59,-375.93 410.94,-385.99 416.48,-381.71"/>
<text xml:space="preserve" text-anchor="middle" x="472.03" y="-395.7" font-family="Times,serif" font-size="14.00"> &#160;dequantized_b</text>
</g>
<!-- conv&#45;&gt;bias_add -->
<g id="edge12" class="edge">
<title>conv&#45;&gt;bias_add</title>
<path fill="none" stroke="black" d="M316.08,-426.8C323.49,-416.3 333.73,-402.94 344.38,-392.5 348.18,-388.77 352.41,-385.1 356.71,-381.62"/>
<polygon fill="black" stroke="black" points="358.58,-384.6 364.37,-375.73 354.31,-379.06 358.58,-384.6"/>
<text xml:space="preserve" text-anchor="middle" x="380" y="-395.7" font-family="Times,serif" font-size="14.00"> &#160;conv2d_op </text>
</g>
<!-- relu -->
<g id="node15" class="node">
<title>relu</title>
<polygon fill="lightblue" stroke="lightblue" points="418.62,-286 364.62,-286 364.62,-250 418.62,-250 418.62,-286"/>
<text xml:space="preserve" text-anchor="middle" x="391.62" y="-262.95" font-family="Times,serif" font-size="14.00">relu</text>
</g>
<!-- bias_add&#45;&gt;relu -->
<g id="edge14" class="edge">
<title>bias_add&#45;&gt;relu</title>
<path fill="none" stroke="black" d="M391.62,-338.41C391.62,-326.76 391.62,-311.05 391.62,-297.52"/>
<polygon fill="black" stroke="black" points="395.13,-297.86 391.63,-287.86 388.13,-297.86 395.13,-297.86"/>
<text xml:space="preserve" text-anchor="middle" x="429.5" y="-307.2" font-family="Times,serif" font-size="14.00"> &#160;bias_add_op</text>
</g>
<!-- quant -->
<g id="node16" class="node">
<title>quant</title>
<polygon fill="lightblue" stroke="lightblue" points="422.5,-197.5 360.75,-197.5 360.75,-161.5 422.5,-161.5 422.5,-197.5"/>
<text xml:space="preserve" text-anchor="middle" x="391.62" y="-174.45" font-family="Times,serif" font-size="14.00">quantize</text>
</g>
<!-- relu&#45;&gt;quant -->
<g id="edge15" class="edge">
<title>relu&#45;&gt;quant</title>
<path fill="none" stroke="black" d="M391.62,-249.91C391.62,-238.26 391.62,-222.55 391.62,-209.02"/>
<polygon fill="black" stroke="black" points="395.13,-209.36 391.63,-199.36 388.13,-209.36 395.13,-209.36"/>
<text xml:space="preserve" text-anchor="middle" x="416" y="-218.7" font-family="Times,serif" font-size="14.00"> &#160;relu_op</text>
</g>
<!-- cast -->
<g id="node17" class="node">
<title>cast</title>
<polygon fill="lightblue" stroke="lightblue" points="418.62,-109 364.62,-109 364.62,-73 418.62,-73 418.62,-109"/>
<text xml:space="preserve" text-anchor="middle" x="391.62" y="-85.95" font-family="Times,serif" font-size="14.00">cast</text>
</g>
<!-- quant&#45;&gt;cast -->
<g id="edge16" class="edge">
<title>quant&#45;&gt;cast</title>
<path fill="none" stroke="black" d="M391.62,-161.41C391.62,-149.76 391.62,-134.05 391.62,-120.52"/>
<polygon fill="black" stroke="black" points="395.13,-120.86 391.63,-110.86 388.13,-120.86 395.13,-120.86"/>
<text xml:space="preserve" text-anchor="middle" x="428.38" y="-130.2" font-family="Times,serif" font-size="14.00"> &#160;quantize_op</text>
</g>
<!-- cast_op -->
<g id="node18" class="node">
<title>cast_op</title>
<polygon fill="white" stroke="white" points="420.25,-36 363,-36 363,0 420.25,0 420.25,-36"/>
<text xml:space="preserve" text-anchor="middle" x="391.62" y="-12.95" font-family="Times,serif" font-size="14.00">cast_op</text>
</g>
<!-- cast&#45;&gt;cast_op -->
<g id="edge17" class="edge">
<title>cast&#45;&gt;cast_op</title>
<path fill="none" stroke="black" d="M391.62,-72.81C391.62,-65.23 391.62,-56.1 391.62,-47.54"/>
<polygon fill="black" stroke="black" points="395.13,-47.54 391.63,-37.54 388.13,-47.54 395.13,-47.54"/>
</g>
</g>
</svg>
