<?xml version="1.0" encoding="UTF-8" standalone="no"?>
<!DOCTYPE svg PUBLIC "-//W3C//DTD SVG 1.1//EN"
 "http://www.w3.org/Graphics/SVG/1.1/DTD/svg11.dtd">
<!-- Generated by graphviz version 13.0.0 (20250608.1624)
 -->
<!-- Title: compiler_flow Pages: 1 -->
<svg width="650pt" height="206pt"
 viewBox="0.00 0.00 650.00 206.00" xmlns="http://www.w3.org/2000/svg" xmlns:xlink="http://www.w3.org/1999/xlink">
<g id="graph0" class="graph" transform="scale(1 1) rotate(0) translate(4 202)">
<title>compiler_flow</title>
<polygon fill="white" stroke="none" points="-4,4 -4,-202 645.75,-202 645.75,4 -4,4"/>
<!-- pytorchinput -->
<g id="node1" class="node">
<title>pytorchinput</title>
<polygon fill="#ffe6cc" stroke="black" points="120.25,-144 18.75,-144 18.75,-108 120.25,-108 120.25,-144"/>
<text xml:space="preserve" text-anchor="middle" x="69.5" y="-120.58" font-family="Arial" font-size="14.00">pytorch model</text>
</g>
<!-- relay -->
<g id="node4" class="node">
<title>relay</title>
<polygon fill="#fff2cc" stroke="black" points="271.5,-90 217.5,-90 217.5,-54 271.5,-54 271.5,-90"/>
<text xml:space="preserve" text-anchor="middle" x="244.5" y="-66.58" font-family="Arial" font-size="14.00">relay</text>
</g>
<!-- pytorchinput&#45;&gt;relay -->
<g id="edge3" class="edge">
<title>pytorchinput&#45;&gt;relay</title>
<path fill="none" stroke="black" d="M120.54,-110.38C147.88,-101.85 181.18,-91.45 206.23,-83.63"/>
<polygon fill="black" stroke="black" points="207.15,-87.01 215.66,-80.69 205.07,-80.33 207.15,-87.01"/>
</g>
<!-- tensorflowinput -->
<g id="node2" class="node">
<title>tensorflowinput</title>
<polygon fill="#ffe6cc" stroke="black" points="128.88,-90 10.12,-90 10.12,-54 128.88,-54 128.88,-90"/>
<text xml:space="preserve" text-anchor="middle" x="69.5" y="-66.58" font-family="Arial" font-size="14.00">tensorflow model</text>
</g>
<!-- tensorflowinput&#45;&gt;relay -->
<g id="edge1" class="edge">
<title>tensorflowinput&#45;&gt;relay</title>
<path fill="none" stroke="black" d="M129.07,-72C154.5,-72 183.53,-72 205.99,-72"/>
<polygon fill="black" stroke="black" points="205.89,-75.5 215.89,-72 205.89,-68.5 205.89,-75.5"/>
</g>
<!-- onnxinput -->
<g id="node3" class="node">
<title>onnxinput</title>
<polygon fill="#ffe6cc" stroke="black" points="112.75,-36 26.25,-36 26.25,0 112.75,0 112.75,-36"/>
<text xml:space="preserve" text-anchor="middle" x="69.5" y="-12.57" font-family="Arial" font-size="14.00">onnx model</text>
</g>
<!-- onnxinput&#45;&gt;relay -->
<g id="edge2" class="edge">
<title>onnxinput&#45;&gt;relay</title>
<path fill="none" stroke="black" d="M112.82,-31.21C141.48,-40.16 178.99,-51.86 206.47,-60.44"/>
<polygon fill="black" stroke="black" points="205.17,-63.7 215.76,-63.34 207.26,-57.02 205.17,-63.7"/>
</g>
<!-- optimization -->
<g id="node5" class="node">
<title>optimization</title>
<polygon fill="#fff2cc" stroke="black" points="438.75,-91.75 350,-91.75 350,-52.25 438.75,-52.25 438.75,-91.75"/>
<text xml:space="preserve" text-anchor="middle" x="394.38" y="-74.45" font-family="Arial" font-size="14.00">graph</text>
<text xml:space="preserve" text-anchor="middle" x="394.38" y="-58.7" font-family="Arial" font-size="14.00">optimization</text>
</g>
<!-- relay&#45;&gt;optimization -->
<g id="edge4" class="edge">
<title>relay&#45;&gt;optimization</title>
<path fill="none" stroke="black" d="M271.94,-72C290.41,-72 315.76,-72 338.51,-72"/>
<polygon fill="black" stroke="black" points="338.26,-75.5 348.26,-72 338.26,-68.5 338.26,-75.5"/>
</g>
<!-- codegen -->
<g id="node6" class="node">
<title>codegen</title>
<polygon fill="#fff2cc" stroke="black" points="544,-91.75 474.75,-91.75 474.75,-52.25 544,-52.25 544,-91.75"/>
<text xml:space="preserve" text-anchor="middle" x="509.38" y="-74.45" font-family="Arial" font-size="14.00">code</text>
<text xml:space="preserve" text-anchor="middle" x="509.38" y="-58.7" font-family="Arial" font-size="14.00">generate</text>
</g>
<!-- optimization&#45;&gt;codegen -->
<g id="edge5" class="edge">
<title>optimization&#45;&gt;codegen</title>
<path fill="none" stroke="black" d="M439.06,-72C446.91,-72 455.1,-72 462.99,-72"/>
<polygon fill="black" stroke="black" points="462.75,-75.5 472.75,-72 462.75,-68.5 462.75,-75.5"/>
</g>
<!-- ccode -->
<g id="node7" class="node">
<title>ccode</title>
<polygon fill="#f8d9d9" stroke="black" points="641.75,-90 580,-90 580,-54 641.75,-54 641.75,-90"/>
<text xml:space="preserve" text-anchor="middle" x="610.88" y="-66.58" font-family="Arial" font-size="14.00">C Code</text>
</g>
<!-- codegen&#45;&gt;ccode -->
<g id="edge6" class="edge">
<title>codegen&#45;&gt;ccode</title>
<path fill="none" stroke="black" d="M544.34,-72C552.06,-72 560.34,-72 568.33,-72"/>
<polygon fill="black" stroke="black" points="568.21,-75.5 578.21,-72 568.21,-68.5 568.21,-75.5"/>
</g>
<!-- model_label -->
<g id="node8" class="node">
<title>model_label</title>
<polygon fill="#ffffff" stroke="none" points="139,-198 0,-198 0,-162 139,-162 139,-198"/>
<text xml:space="preserve" text-anchor="middle" x="69.5" y="-176.5" font-family="Arial" font-size="10.00">intermediate representations</text>
</g>
<!-- ir_label -->
<g id="node9" class="node">
<title>ir_label</title>
<polygon fill="#ffffff" stroke="none" points="314,-144 175,-144 175,-108 314,-108 314,-144"/>
<text xml:space="preserve" text-anchor="middle" x="244.5" y="-122.5" font-family="Arial" font-size="10.00">intermediate representations</text>
</g>
<!-- cg_label -->
<g id="node10" class="node">
<title>cg_label</title>
<polygon fill="#ffffff" stroke="none" points="438.38,-146 350.38,-146 350.38,-110 438.38,-110 438.38,-146"/>
<text xml:space="preserve" text-anchor="middle" x="394.38" y="-124.5" font-family="Arial" font-size="10.00">computing graph</text>
</g>
</g>
</svg>
